# xmcd CD database file
#
# Track frame offsets:
#	150
#	21072
#	36352
#	42260
#	60492
#	78765
#	105147
#	123562
#	142617
#	168260
#	191845
#	213017
#	228815
#	241660
#	263052
#	273877
#	299092
#	311115
#	319577
#	332997
#
# Disc length: 4712 seconds
#
# Revision: 0
# Processed by: cddbd v1.5.1PL0 Copyright (c) Steve Scherf et al.
# Submitted via: CDex 1.51
#
DISCID=0a126614
DTITLE=Oswaldo Montenegro - Millennium-Oswaldo Montenegro
DYEAR=2000
DGENRE=MPB
TTITLE0=Lua e flor-Oswaldo Montenegro
TTITLE1=Aos filhos de aquario-Oswaldo Montenegro
TTITLE2=Leo e Bia-Oswaldo Montenegro
TTITLE3=Menestrel urgano e Pedaco de mim-Oswaldo Montenegro
TTITLE4=Travessuras-Oswaldo Montenegro
TTITLE5=O q sera e A banda-Oswaldo Montenegro
TTITLE6=Espelho das aguas-Oswaldo Montenegro
TTITLE7=Intuicao-Oswaldo Montenegro
TTITLE8=Sempre nao eh todo dia-Oswaldo Montenegro
TTITLE9=Condor-Oswaldo Montenegro
TTITLE10=O velho Francisco e Hino a Duran-Oswaldo Montenegro
TTITLE11=Estrelas-Oswaldo Montenegro
TTITLE12=Agonia-Oswaldo Montenegro
TTITLE13=Deus lhe pague-Oswaldo Montenegro
TTITLE14=O gago-Oswaldo Montenegro
TTITLE15=Bandolins-Oswaldo Montenegro
TTITLE16=Lendas das arvores e ventos-Oswaldo Montenegro
TTITLE17=Construcao-Oswaldo Montenegro
TTITLE18=Lili e Ciranda da bailarina-Oswaldo Montenegro
TTITLE19=Drops de hortela-Oswaldo Montenegro e Gloria Pires
EXTD=YEAR: 2000
EXTT0=
EXTT1=
EXTT2=
EXTT3=
EXTT4=
EXTT5=
EXTT6=
EXTT7=
EXTT8=
EXTT9=
EXTT10=
EXTT11=
EXTT12=
EXTT13=
EXTT14=
EXTT15=
EXTT16=
EXTT17=
EXTT18=
EXTT19=
PLAYORDER=
